<?xml version="1.0" encoding="utf-8"?>
<!-- Generator: Adobe Illustrator 24.1.2, SVG Export Plug-In . SVG Version: 6.00 Build 0)  -->
<svg version="1.1" id="Layer_1" xmlns="http://www.w3.org/2000/svg" xmlns:xlink="http://www.w3.org/1999/xlink" x="0px" y="0px"
	 viewBox="0 0 540 394" style="enable-background:new 0 0 540 394;" xml:space="preserve">
<style type="text/css">
	.st0{fill:#FFFFFF;}
</style>
<g>
	<g>
		<g>
			<path class="st0" d="M80.84,270.21c0,2.69-0.67,5.15-2.02,7.39s-3.14,4.03-5.38,5.37s-4.7,2.02-7.39,2.02H45.9
				c-2.69,0-5.17-0.67-7.45-2.02c-2.28-1.34-4.09-3.13-5.43-5.37s-2.02-4.7-2.02-7.39v-8.06c0-1.42,0.5-2.63,1.51-3.64
				s2.22-1.51,3.64-1.51h3.13c1.42,0,2.63,0.5,3.64,1.51s1.51,2.22,1.51,3.64v8.06c0,0.37,0.15,0.73,0.45,1.06
				c0.3,0.34,0.63,0.5,1.01,0.5h20.15c0.37,0,0.71-0.17,1.01-0.5c0.3-0.33,0.45-0.69,0.45-1.06v-55.76c0-1.49,0.5-2.72,1.51-3.69
				c1.01-0.97,2.22-1.46,3.64-1.46h3.02c1.49,0,2.72,0.49,3.7,1.46c0.97,0.97,1.46,2.2,1.46,3.69V270.21z"/>
			<path class="st0" d="M130.44,272.45c0,3.51-1.21,6.48-3.64,8.9c-2.43,2.43-5.36,3.64-8.79,3.64h-15.56
				c-3.43,0-6.38-1.21-8.84-3.64c-2.46-2.43-3.7-5.39-3.7-8.9v-40.2c0-1.49,0.5-2.74,1.51-3.75s2.22-1.51,3.64-1.51h3.13
				c1.42,0,2.61,0.5,3.58,1.51c0.97,1.01,1.46,2.26,1.46,3.75v38.07c0,0.38,0.17,0.71,0.5,1.01c0.34,0.3,0.69,0.45,1.06,0.45h10.86
				c0.37,0,0.73-0.15,1.06-0.45c0.34-0.3,0.5-0.63,0.5-1.01v-38.07c0-1.49,0.48-2.74,1.46-3.75c0.97-1.01,2.16-1.51,3.58-1.51h3.14
				c1.42,0,2.61,0.5,3.58,1.51c0.97,1.01,1.46,2.26,1.46,3.75V272.45z"/>
			<path class="st0" d="M180.04,279.84c0,1.42-0.49,2.63-1.46,3.64c-0.97,1.01-2.17,1.51-3.58,1.51h-3.13
				c-1.42,0-2.61-0.5-3.58-1.51c-0.97-1.01-1.46-2.22-1.46-3.64v-37.96c0-0.45-0.17-0.82-0.5-1.12c-0.34-0.3-0.69-0.45-1.06-0.45
				H154.4c-0.38,0-0.73,0.15-1.06,0.45c-0.34,0.3-0.5,0.67-0.5,1.12v37.96c0,1.42-0.49,2.63-1.46,3.64
				c-0.97,1.01-2.17,1.51-3.58,1.51h-3.13c-1.42,0-2.63-0.5-3.64-1.51s-1.51-2.22-1.51-3.64v-40.31c0-2.31,0.58-4.42,1.74-6.33
				c1.16-1.9,2.67-3.42,4.53-4.54c1.87-1.12,3.96-1.68,6.27-1.68h15.56c2.31,0,4.4,0.56,6.27,1.68c1.86,1.12,3.36,2.63,4.48,4.54
				c1.12,1.9,1.68,4.01,1.68,6.33V279.84z"/>
			<path class="st0" d="M229.64,290.37c0,2.24-0.56,4.31-1.68,6.21c-1.12,1.9-2.61,3.43-4.48,4.59c-1.87,1.16-3.96,1.74-6.27,1.74
				h-15.56c-1.42,0-2.63-0.5-3.64-1.51s-1.51-2.22-1.51-3.64v-3.13c0-1.42,0.5-2.61,1.51-3.58c1.01-0.97,2.22-1.46,3.64-1.46h13.21
				c0.37,0,0.73-0.15,1.06-0.45c0.34-0.3,0.5-0.63,0.5-1.01v-1.68c0-0.37-0.17-0.71-0.5-1.01c-0.34-0.3-0.69-0.45-1.06-0.45h-13.21
				c-3.43,0-6.38-1.21-8.84-3.64c-2.46-2.43-3.7-5.39-3.7-8.9v-32.92c0-2.31,0.58-4.42,1.74-6.33c1.16-1.9,2.67-3.42,4.54-4.54
				c1.86-1.12,3.96-1.68,6.27-1.68h15.56c2.31,0,4.4,0.56,6.27,1.68c1.87,1.12,3.36,2.63,4.48,4.54c1.12,1.9,1.68,4.01,1.68,6.33
				V290.37z M216.43,270.33v-28.44c0-0.45-0.17-0.82-0.5-1.12c-0.34-0.3-0.69-0.45-1.06-0.45H204c-0.37,0-0.73,0.15-1.06,0.45
				c-0.34,0.3-0.5,0.67-0.5,1.12v28.44c0,0.38,0.17,0.71,0.5,1.01c0.34,0.3,0.69,0.45,1.06,0.45h10.86c0.37,0,0.73-0.15,1.06-0.45
				C216.26,271.04,216.43,270.7,216.43,270.33z"/>
			<path class="st0" d="M259.08,279.84c0,1.42-0.5,2.63-1.51,3.64s-2.22,1.51-3.64,1.51h-2.8c-3.43,0-6.38-1.21-8.85-3.64
				c-2.46-2.43-3.69-5.39-3.69-8.9v-58c0-1.49,0.5-2.72,1.51-3.69c1.01-0.97,2.22-1.46,3.64-1.46h3.13c1.42,0,2.63,0.49,3.64,1.46
				c1.01,0.97,1.51,2.2,1.51,3.69v55.87c0,0.97,0.45,1.46,1.34,1.46h0.56c1.42,0,2.63,0.49,3.64,1.46c1.01,0.97,1.51,2.2,1.51,3.7
				V279.84z"/>
			<path class="st0" d="M308.46,251.74c0,2.24-0.56,4.31-1.68,6.21c-1.12,1.9-2.61,3.43-4.48,4.59c-1.87,1.16-3.96,1.74-6.27,1.74
				h-13.21c-0.37,0-0.73,0.13-1.06,0.39c-0.34,0.26-0.5,0.58-0.5,0.95v4.7c0,0.38,0.17,0.71,0.5,1.01c0.34,0.3,0.69,0.45,1.06,0.45
				h13.21c1.42,0,2.63,0.49,3.64,1.46c1.01,0.97,1.51,2.2,1.51,3.7v2.91c0,1.42-0.5,2.63-1.51,3.64s-2.22,1.51-3.64,1.51h-15.56
				c-3.43,0-6.38-1.21-8.84-3.64c-2.46-2.43-3.7-5.39-3.7-8.9v-32.92c0-2.31,0.58-4.4,1.74-6.27c1.16-1.87,2.67-3.38,4.54-4.54
				c1.86-1.16,3.96-1.74,6.27-1.74h15.56c2.31,0,4.4,0.58,6.27,1.74c1.87,1.16,3.36,2.67,4.48,4.54c1.12,1.87,1.68,3.96,1.68,6.27
				V251.74z M295.25,249.5v-7.61c0-0.45-0.17-0.82-0.5-1.12c-0.34-0.3-0.69-0.45-1.06-0.45h-10.86c-0.37,0-0.73,0.15-1.06,0.45
				c-0.34,0.3-0.5,0.67-0.5,1.12v7.61c0,0.3,0.17,0.6,0.5,0.9c0.34,0.3,0.69,0.45,1.06,0.45h10.86c0.37,0,0.73-0.15,1.06-0.45
				C295.08,250.1,295.25,249.8,295.25,249.5z"/>
			<path class="st0" d="M367.36,270.21c0,2.69-0.67,5.15-2.02,7.39s-3.14,4.03-5.38,5.37s-4.7,2.02-7.39,2.02h-29.9
				c-1.42,0-2.63-0.5-3.64-1.51s-1.51-2.22-1.51-3.64v-65.39c0-1.49,0.5-2.72,1.51-3.69c1.01-0.97,2.22-1.46,3.64-1.46h29.9
				c2.69,0,5.15,0.67,7.39,2.02s4.03,3.13,5.38,5.37c1.34,2.24,2.02,4.74,2.02,7.5V270.21z M354.03,270.21V224.2
				c0-1.04-0.49-1.57-1.46-1.57h-20.15c-0.97,0-1.46,0.49-1.46,1.46v46.24c0,0.97,0.48,1.46,1.46,1.46h20.15
				c0.37,0,0.71-0.17,1.01-0.5C353.88,270.94,354.03,270.59,354.03,270.21z"/>
			<path class="st0" d="M409.68,235.28c0,1.42-0.49,2.61-1.46,3.58c-0.97,0.97-2.17,1.46-3.58,1.46h-13.32
				c-0.97,0-1.46,0.52-1.46,1.57v37.96c0,1.42-0.5,2.63-1.51,3.64s-2.22,1.51-3.64,1.51h-3.13c-1.42,0-2.61-0.5-3.58-1.51
				c-0.97-1.01-1.46-2.22-1.46-3.64v-40.31c0-2.31,0.56-4.42,1.68-6.33c1.12-1.9,2.61-3.42,4.48-4.54c1.86-1.12,3.96-1.68,6.27-1.68
				h15.68c1.42,0,2.61,0.5,3.58,1.51c0.97,1.01,1.46,2.26,1.46,3.75V235.28z"/>
			<path class="st0" d="M459.28,272.45c0,3.51-1.21,6.48-3.64,8.9c-2.43,2.43-5.36,3.64-8.79,3.64h-15.56
				c-3.43,0-6.38-1.21-8.85-3.64c-2.46-2.43-3.7-5.39-3.7-8.9v-32.92c0-2.31,0.58-4.42,1.74-6.33c1.16-1.9,2.67-3.42,4.54-4.54
				c1.87-1.12,3.96-1.68,6.27-1.68h15.56c2.31,0,4.4,0.56,6.27,1.68c1.87,1.12,3.36,2.63,4.48,4.54c1.12,1.9,1.68,4.01,1.68,6.33
				V272.45z M446.07,270.33v-28.44c0-0.45-0.17-0.82-0.5-1.12c-0.34-0.3-0.69-0.45-1.06-0.45h-10.86c-0.37,0-0.73,0.15-1.06,0.45
				c-0.34,0.3-0.5,0.67-0.5,1.12v28.44c0,0.38,0.17,0.71,0.5,1.01c0.34,0.3,0.69,0.45,1.06,0.45h10.86c0.37,0,0.73-0.15,1.06-0.45
				C445.9,271.04,446.07,270.7,446.07,270.33z"/>
			<path class="st0" d="M508.88,272.45c0,3.51-1.21,6.48-3.64,8.9c-2.43,2.43-5.36,3.64-8.79,3.64h-13.21
				c-0.37,0-0.73,0.15-1.06,0.45c-0.34,0.3-0.5,0.63-0.5,1.01v11.31c0,1.42-0.49,2.63-1.46,3.64c-0.97,1.01-2.17,1.51-3.58,1.51
				h-3.14c-1.42,0-2.63-0.5-3.64-1.51s-1.51-2.22-1.51-3.64v-58.22c0-2.31,0.58-4.42,1.74-6.33c1.16-1.9,2.67-3.42,4.54-4.54
				c1.87-1.12,3.96-1.68,6.27-1.68h15.56c2.31,0,4.4,0.56,6.27,1.68c1.87,1.12,3.36,2.63,4.48,4.54c1.12,1.9,1.68,4.01,1.68,6.33
				V272.45z M495.67,270.33v-28.44c0-0.45-0.17-0.82-0.5-1.12c-0.34-0.3-0.69-0.45-1.06-0.45h-10.86c-0.37,0-0.73,0.15-1.06,0.45
				c-0.34,0.3-0.5,0.67-0.5,1.12v28.44c0,0.38,0.17,0.71,0.5,1.01c0.34,0.3,0.69,0.45,1.06,0.45h10.86c0.37,0,0.73-0.15,1.06-0.45
				C495.5,271.04,495.67,270.7,495.67,270.33z"/>
		</g>
	</g>
	<g>
		<path class="st0" d="M254.4,87.4c0.88-14.3,5.38-25.94,15.25-35.77c9.92,9.81,14.36,21.5,15.38,35.64
			c10.64-9.01,22.08-14.56,36.32-14.41c0.5,13.91-5.01,25.29-14.13,36.23c11.14,0.71,20.65,3.57,29,9.58
			c2.23,1.61,4.3,3.45,7.01,5.66c-10.75,10.21-22.75,15.3-36.93,15.35c-14.07,0.05-26.02-5.2-36.58-14.85
			c-12.32,11.28-26.66,16.49-43.18,14.37c-11.27-1.44-21.09-6.19-29.75-14.74c9.81-9.6,21.23-14.48,34.74-15.14
			c-3.28-5.76-7.13-11.12-9.49-17.07c-2.31-5.81-3.12-12.21-4.75-19.05C232.26,72.95,243.59,78.28,254.4,87.4z"/>
		<path class="st0" d="M266.11,139.75c0,10.37,0.01,20.41,0,30.46c-0.01,5.78,0.13,11.58-0.1,17.35c-0.21,5.33-3.54,9.74-8.65,9.88
			c-15.14,0.4-30.3,0.14-45.43,0.14C210.27,170.84,233.18,141.62,266.11,139.75z"/>
		<path class="st0" d="M274.19,139.87c34.05,2.1,55.26,33.56,53.06,58.05c-5.15,0-10.38,0-15.62,0c-8.75-0.01-17.51,0.06-26.26-0.06
			c-7.04-0.1-11.58-4.13-11.65-10.77c-0.17-15.19-0.06-30.38-0.03-45.58C273.69,141.05,273.96,140.59,274.19,139.87z"/>
	</g>
	<g>
		<g>
			<path class="st0" d="M84.48,331l5.55-12.47h1.79v17.27h-1.71v-14.83l0.18,0.76l-5.2,11.67h-1.21l-5.2-11.44l0.18-1v14.83h-1.71
				v-17.27h1.79L84.48,331z"/>
			<path class="st0" d="M104.66,335.97c-1.44,0-2.56-0.33-3.35-1c-0.79-0.66-1.19-1.6-1.19-2.81c0-1.16,0.36-2.06,1.09-2.7
				c0.73-0.64,1.75-0.96,3.06-0.96h4.1l0.17,1.59h-4.25c-0.79,0-1.4,0.18-1.83,0.54c-0.43,0.36-0.65,0.87-0.65,1.53
				c0,0.7,0.27,1.24,0.81,1.62c0.54,0.38,1.31,0.58,2.3,0.58c1.06,0,1.88-0.11,2.47-0.32c0.59-0.21,0.88-0.52,0.88-0.9l0.25,1.62
				c-0.25,0.26-0.56,0.48-0.94,0.66c-0.38,0.18-0.82,0.32-1.31,0.42C105.77,335.93,105.24,335.97,104.66,335.97z M108.27,335.8
				v-7.81c0-1-0.27-1.77-0.8-2.32s-1.29-0.83-2.27-0.83c-0.58,0-1.15,0.1-1.71,0.29c-0.56,0.19-1.06,0.46-1.51,0.81l-1.25-0.86
				c0.47-0.56,1.08-1,1.85-1.31c0.76-0.31,1.61-0.47,2.55-0.47c1.54,0,2.74,0.4,3.59,1.2s1.27,1.93,1.27,3.38v7.92H108.27z"/>
			<path class="st0" d="M118.53,335.8v-17.27h1.71v17.27H118.53z M119.42,333.99l0.33-2.4l7-8.12h2.02L119.42,333.99z M127.29,335.8
				l-4.05-6.68l1-1.62l5.13,8.29H127.29z"/>
			<path class="st0" d="M141.3,335.97c-1.72,0-3.05-0.48-3.99-1.44c-0.94-0.96-1.41-2.32-1.41-4.08v-1.39
				c0-1.84,0.45-3.26,1.36-4.26s2.18-1.51,3.83-1.51c1.55,0,2.75,0.49,3.6,1.48s1.28,2.39,1.28,4.19v1.41h-8.91v-1.54h7.32v-0.12
				c0-1.22-0.29-2.16-0.86-2.83c-0.57-0.67-1.38-1-2.43-1c-1.15,0-2.04,0.35-2.66,1.06s-0.94,1.7-0.94,2.99v1.57
				c0,1.23,0.33,2.19,1,2.87c0.67,0.68,1.6,1.02,2.81,1.02c0.57,0,1.13-0.12,1.69-0.36c0.56-0.24,1.05-0.57,1.49-1.01l1.16,1.12
				c-0.6,0.59-1.28,1.04-2.04,1.36C142.85,335.81,142.08,335.97,141.3,335.97z"/>
			<path class="st0" d="M176.24,318.53l-5.62,10.25v7.02h-1.71v-7.02l-5.62-10.25h1.86l4.61,8.62l4.61-8.62H176.24z"/>
			<path class="st0" d="M186.31,335.97c-1.62,0-2.87-0.47-3.75-1.41c-0.89-0.94-1.33-2.26-1.33-3.96v-2.01
				c0-1.69,0.44-2.99,1.33-3.92c0.89-0.93,2.14-1.39,3.75-1.39s2.87,0.46,3.75,1.39c0.89,0.93,1.33,2.23,1.33,3.92v2.04
				c0,1.69-0.44,3.01-1.33,3.94C189.18,335.51,187.93,335.97,186.31,335.97z M186.3,334.38c1.08,0,1.91-0.33,2.5-0.98
				c0.59-0.65,0.88-1.57,0.88-2.76v-2.04c0-1.18-0.3-2.09-0.88-2.74c-0.59-0.65-1.42-0.97-2.5-0.97c-1.07,0-1.9,0.32-2.48,0.97
				c-0.59,0.65-0.88,1.56-0.88,2.74v2.04c0,1.19,0.29,2.11,0.88,2.76C184.4,334.06,185.23,334.38,186.3,334.38z"/>
			<path class="st0" d="M201.12,323.47v7.49c0,1.08,0.28,1.93,0.84,2.52s1.36,0.9,2.39,0.9c1.02,0,1.81-0.27,2.37-0.82
				c0.56-0.55,0.84-1.32,0.84-2.32l0.17,2.58c-0.27,0.55-0.74,1.05-1.41,1.49c-0.67,0.44-1.55,0.66-2.64,0.66
				c-1.36,0-2.41-0.44-3.15-1.31c-0.74-0.88-1.11-2.11-1.11-3.7v-7.49H201.12z M207.55,335.8v-12.33h1.7v12.33H207.55z"/>
			<path class="st0" d="M217.8,335.8v-12.33h1.71v12.33H217.8z M225.05,325.68c-0.25-0.26-0.57-0.46-0.96-0.59s-0.83-0.2-1.34-0.2
				c-1.04,0-1.84,0.28-2.41,0.83c-0.57,0.55-0.85,1.31-0.85,2.28l-0.25-2.38c0.45-0.73,1.04-1.3,1.77-1.71s1.53-0.62,2.41-0.62
				c0.56,0,1.07,0.08,1.53,0.24c0.46,0.16,0.85,0.4,1.19,0.72L225.05,325.68z"/>
			<path class="st0" d="M249.86,335.97c-0.84,0-1.63-0.08-2.37-0.24s-1.43-0.39-2.08-0.71c-0.65-0.32-1.25-0.71-1.81-1.19l1.03-1.35
				c0.73,0.63,1.53,1.11,2.39,1.43s1.81,0.47,2.83,0.47c1.49,0,2.64-0.29,3.44-0.88s1.21-1.41,1.21-2.47v-0.01
				c0-0.72-0.2-1.27-0.59-1.66c-0.4-0.39-0.91-0.68-1.55-0.88c-0.64-0.2-1.33-0.37-2.07-0.51c-0.69-0.13-1.38-0.28-2.07-0.45
				s-1.33-0.39-1.9-0.69s-1.04-0.72-1.38-1.26c-0.35-0.54-0.52-1.26-0.52-2.15v-0.01c0-1.61,0.54-2.85,1.6-3.74
				c1.07-0.88,2.58-1.32,4.53-1.32c0.92,0,1.82,0.15,2.7,0.45s1.75,0.75,2.61,1.36l-1.01,1.34c-0.74-0.52-1.47-0.91-2.19-1.17
				c-0.71-0.26-1.42-0.39-2.11-0.39c-1.41,0-2.5,0.29-3.28,0.88s-1.16,1.43-1.16,2.51v0.01c0,0.71,0.22,1.26,0.66,1.63
				c0.44,0.37,1.01,0.65,1.71,0.84c0.7,0.19,1.44,0.37,2.23,0.52c0.67,0.13,1.32,0.29,1.98,0.47c0.65,0.18,1.24,0.43,1.78,0.75
				c0.53,0.32,0.95,0.75,1.27,1.29c0.32,0.54,0.47,1.24,0.47,2.1v0.02c0,1.59-0.55,2.82-1.66,3.69S251.88,335.97,249.86,335.97z"/>
			<path class="st0" d="M264.28,340.81v-17.34h1.71v17.34H264.28z M269.8,335.97c-0.93,0-1.75-0.15-2.45-0.46
				c-0.7-0.31-1.21-0.86-1.53-1.65l0.17-2.58c0,0.52,0.12,1.03,0.37,1.53c0.25,0.5,0.6,0.9,1.07,1.22c0.47,0.32,1.03,0.47,1.7,0.47
				c1.03,0,1.82-0.31,2.39-0.92s0.84-1.47,0.84-2.58v-2.67c0-1.13-0.28-2.01-0.84-2.63s-1.36-0.93-2.39-0.93
				c-0.67,0-1.23,0.16-1.7,0.47c-0.47,0.31-0.82,0.71-1.07,1.19s-0.37,0.98-0.37,1.5l-0.25-2.38c0.44-0.84,1.03-1.42,1.76-1.76
				c0.73-0.33,1.54-0.5,2.42-0.5c1.32,0,2.34,0.44,3.06,1.31s1.08,2.11,1.08,3.71V331c0,1.58-0.37,2.8-1.12,3.67
				S271.15,335.97,269.8,335.97z"/>
			<path class="st0" d="M286.32,335.97c-1.44,0-2.56-0.33-3.35-1c-0.79-0.66-1.19-1.6-1.19-2.81c0-1.16,0.36-2.06,1.09-2.7
				c0.73-0.64,1.75-0.96,3.06-0.96h4.1l0.17,1.59h-4.25c-0.79,0-1.4,0.18-1.83,0.54c-0.43,0.36-0.65,0.87-0.65,1.53
				c0,0.7,0.27,1.24,0.81,1.62c0.54,0.38,1.31,0.58,2.3,0.58c1.06,0,1.88-0.11,2.47-0.32c0.59-0.21,0.88-0.52,0.88-0.9l0.25,1.62
				c-0.25,0.26-0.56,0.48-0.94,0.66s-0.82,0.32-1.31,0.42C287.43,335.93,286.89,335.97,286.32,335.97z M289.93,335.8v-7.81
				c0-1-0.27-1.77-0.8-2.32c-0.54-0.55-1.29-0.83-2.27-0.83c-0.58,0-1.15,0.1-1.71,0.29c-0.56,0.19-1.07,0.46-1.51,0.81l-1.25-0.86
				c0.47-0.56,1.08-1,1.85-1.31c0.76-0.31,1.61-0.47,2.55-0.47c1.54,0,2.74,0.4,3.59,1.2c0.85,0.8,1.27,1.93,1.27,3.38v7.92H289.93z
				"/>
			<path class="st0" d="M305.16,335.97c-1.78,0-3.12-0.45-4-1.34s-1.33-2.23-1.33-4.02v-2.03c0-1.77,0.44-3.1,1.33-3.98
				s2.22-1.32,4-1.32c1.01,0,1.89,0.16,2.63,0.49s1.35,0.82,1.83,1.48l-1.27,1.13c-0.42-0.51-0.89-0.88-1.42-1.13
				c-0.53-0.25-1.11-0.37-1.74-0.37c-1.22,0-2.13,0.31-2.74,0.92c-0.61,0.61-0.92,1.54-0.92,2.79v2.03c0,1.26,0.3,2.2,0.92,2.83
				c0.61,0.63,1.52,0.94,2.74,0.94c0.67,0,1.28-0.12,1.83-0.36c0.55-0.24,1.05-0.6,1.49-1.08l1.1,1.09
				c-0.48,0.65-1.09,1.13-1.83,1.46S306.17,335.97,305.16,335.97z"/>
			<path class="st0" d="M322.21,335.97c-1.72,0-3.05-0.48-3.99-1.44c-0.94-0.96-1.41-2.32-1.41-4.08v-1.39
				c0-1.84,0.45-3.26,1.36-4.26s2.18-1.51,3.83-1.51c1.55,0,2.75,0.49,3.6,1.48s1.28,2.39,1.28,4.19v1.41h-8.91v-1.54h7.32v-0.12
				c0-1.22-0.29-2.16-0.86-2.83c-0.57-0.67-1.38-1-2.43-1c-1.15,0-2.04,0.35-2.66,1.06s-0.94,1.7-0.94,2.99v1.57
				c0,1.23,0.33,2.19,1,2.87c0.67,0.68,1.6,1.02,2.81,1.02c0.57,0,1.13-0.12,1.69-0.36c0.56-0.24,1.05-0.57,1.49-1.01l1.16,1.12
				c-0.6,0.59-1.28,1.04-2.04,1.36C323.75,335.81,322.98,335.97,322.21,335.97z"/>
			<path class="st0" d="M346.7,335.8v-17.27h1.71v17.27H346.7z M348.12,335.8v-1.59h4.74c1.53,0,2.61-0.29,3.25-0.87
				s0.96-1.34,0.96-2.28v-0.05c0-1-0.28-1.79-0.84-2.39c-0.56-0.59-1.48-0.89-2.77-0.89h-5.33v-1.59h5.33
				c1.12,0,1.97-0.25,2.54-0.75c0.57-0.5,0.85-1.24,0.85-2.22c0-1.02-0.31-1.79-0.93-2.29c-0.62-0.51-1.55-0.76-2.79-0.76h-5v-1.59
				h5.38c1.7,0,2.97,0.42,3.8,1.27c0.83,0.85,1.25,1.98,1.25,3.41c0,0.84-0.25,1.62-0.75,2.35s-1.3,1.19-2.39,1.39
				c1.07,0.16,1.9,0.63,2.49,1.41c0.59,0.79,0.88,1.68,0.88,2.7v0.04c0,1.41-0.46,2.54-1.37,3.41c-0.91,0.86-2.15,1.29-3.71,1.29
				H348.12z"/>
			<path class="st0" d="M367.03,335.8v-12.33h1.71v12.33H367.03z M374.28,325.68c-0.25-0.26-0.57-0.46-0.96-0.59
				c-0.38-0.13-0.83-0.2-1.34-0.2c-1.04,0-1.84,0.28-2.4,0.83c-0.57,0.55-0.85,1.31-0.85,2.28l-0.25-2.38
				c0.45-0.73,1.04-1.3,1.77-1.71s1.53-0.62,2.41-0.62c0.56,0,1.07,0.08,1.53,0.24c0.46,0.16,0.85,0.4,1.19,0.72L374.28,325.68z"/>
			<path class="st0" d="M387.08,335.97c-1.72,0-3.05-0.48-3.99-1.44c-0.94-0.96-1.41-2.32-1.41-4.08v-1.39
				c0-1.84,0.45-3.26,1.36-4.26c0.91-1.01,2.18-1.51,3.83-1.51c1.55,0,2.75,0.49,3.6,1.48c0.85,0.99,1.28,2.39,1.28,4.19v1.41h-8.91
				v-1.54h7.32v-0.12c0-1.22-0.29-2.16-0.86-2.83c-0.57-0.67-1.38-1-2.43-1c-1.15,0-2.04,0.35-2.66,1.06
				c-0.63,0.71-0.94,1.7-0.94,2.99v1.57c0,1.23,0.33,2.19,1,2.87c0.67,0.68,1.6,1.02,2.82,1.02c0.57,0,1.13-0.12,1.69-0.36
				c0.56-0.24,1.05-0.57,1.49-1.01l1.16,1.12c-0.6,0.59-1.28,1.04-2.04,1.36S387.86,335.97,387.08,335.97z"/>
			<path class="st0" d="M403.88,335.97c-1.44,0-2.56-0.33-3.35-1c-0.79-0.66-1.19-1.6-1.19-2.81c0-1.16,0.36-2.06,1.09-2.7
				c0.73-0.64,1.75-0.96,3.06-0.96h4.1l0.17,1.59h-4.25c-0.79,0-1.4,0.18-1.83,0.54c-0.43,0.36-0.65,0.87-0.65,1.53
				c0,0.7,0.27,1.24,0.81,1.62c0.54,0.38,1.31,0.58,2.3,0.58c1.06,0,1.88-0.11,2.47-0.32c0.59-0.21,0.88-0.52,0.88-0.9l0.25,1.62
				c-0.25,0.26-0.56,0.48-0.95,0.66c-0.38,0.18-0.82,0.32-1.31,0.42C404.99,335.93,404.46,335.97,403.88,335.97z M407.49,335.8
				v-7.81c0-1-0.27-1.77-0.8-2.32c-0.53-0.55-1.29-0.83-2.27-0.83c-0.58,0-1.15,0.1-1.71,0.29c-0.56,0.19-1.06,0.46-1.51,0.81
				l-1.25-0.86c0.47-0.56,1.08-1,1.85-1.31c0.76-0.31,1.61-0.47,2.55-0.47c1.54,0,2.74,0.4,3.59,1.2s1.27,1.93,1.27,3.38v7.92
				H407.49z"/>
			<path class="st0" d="M416.8,324.94v-1.47h5.56v1.47H416.8z M420.95,335.86c-1.01,0-1.75-0.28-2.2-0.84
				c-0.46-0.56-0.68-1.37-0.68-2.42v-12.71h1.71v12.73c0,0.52,0.12,0.93,0.36,1.22s0.59,0.43,1.06,0.43h1.16v1.59H420.95z"/>
			<path class="st0" d="M430.54,335.8v-17.27h1.71v17.27H430.54z M438.74,335.8v-7.47c0-1.09-0.29-1.94-0.86-2.54
				s-1.38-0.9-2.43-0.9c-1.01,0-1.8,0.27-2.36,0.8c-0.56,0.54-0.84,1.29-0.84,2.28l-0.25-2.38c0.46-0.85,1.06-1.44,1.8-1.78
				c0.74-0.34,1.55-0.51,2.44-0.51c1.34,0,2.37,0.44,3.11,1.31s1.1,2.11,1.1,3.71v7.48H438.74z"/>
			<path class="st0" d="M454.04,335.97c-1.72,0-3.05-0.48-3.99-1.44c-0.94-0.96-1.41-2.32-1.41-4.08v-1.39
				c0-1.84,0.45-3.26,1.36-4.26c0.91-1.01,2.18-1.51,3.83-1.51c1.55,0,2.75,0.49,3.6,1.48c0.85,0.99,1.28,2.39,1.28,4.19v1.41h-8.91
				v-1.54h7.32v-0.12c0-1.22-0.29-2.16-0.86-2.83c-0.57-0.67-1.38-1-2.43-1c-1.15,0-2.03,0.35-2.66,1.06
				c-0.63,0.71-0.94,1.7-0.94,2.99v1.57c0,1.23,0.33,2.19,1,2.87c0.67,0.68,1.6,1.02,2.81,1.02c0.57,0,1.13-0.12,1.69-0.36
				c0.56-0.24,1.06-0.57,1.49-1.01l1.16,1.12c-0.6,0.59-1.28,1.04-2.04,1.36C455.59,335.81,454.82,335.97,454.04,335.97z"/>
		</g>
	</g>
</g>
</svg>
