<?xml version="1.0" encoding="utf-8"?>
<!-- Generator: Adobe Illustrator 24.1.2, SVG Export Plug-In . SVG Version: 6.00 Build 0)  -->
<svg version="1.1" id="logo" xmlns="http://www.w3.org/2000/svg" xmlns:xlink="http://www.w3.org/1999/xlink" x="0px" y="0px"
	 viewBox="0 0 573.38 307.51" style="enable-background:new 0 0 573.38 307.51;" xml:space="preserve">
<style type="text/css">
	.st0{fill:#FFFFFF;}
</style>
<g id="text" class="textBounce ">
	<path class="st0" d="M86.36,242.32c0,2.85-0.71,5.46-2.13,7.83c-1.42,2.37-3.32,4.27-5.69,5.69c-2.37,1.42-4.98,2.13-7.83,2.13
		H49.36c-2.85,0-5.47-0.71-7.89-2.13c-2.41-1.42-4.33-3.32-5.75-5.69c-1.42-2.37-2.13-4.98-2.13-7.83v-8.54
		c0-1.5,0.53-2.79,1.6-3.85c1.07-1.07,2.35-1.6,3.85-1.6h3.32c1.5,0,2.79,0.54,3.85,1.6s1.6,2.35,1.6,3.85v8.54
		c0,0.4,0.16,0.77,0.47,1.13c0.31,0.36,0.67,0.53,1.07,0.53h21.34c0.39,0,0.75-0.18,1.07-0.53c0.31-0.36,0.47-0.73,0.47-1.13v-59.05
		c0-1.58,0.53-2.88,1.6-3.91s2.35-1.54,3.85-1.54h3.2c1.58,0,2.88,0.52,3.91,1.54c1.03,1.03,1.54,2.33,1.54,3.91V242.32z"/>
	<path class="st0" d="M138.89,244.7c0,3.71-1.29,6.86-3.85,9.43c-2.57,2.57-5.67,3.85-9.31,3.85h-16.48c-3.64,0-6.76-1.28-9.37-3.85
		c-2.61-2.57-3.91-5.71-3.91-9.43v-42.57c0-1.58,0.53-2.9,1.6-3.97c1.07-1.07,2.35-1.6,3.85-1.6h3.32c1.5,0,2.77,0.53,3.79,1.6
		c1.03,1.07,1.54,2.39,1.54,3.97v40.32c0,0.4,0.18,0.75,0.53,1.07c0.36,0.32,0.73,0.47,1.13,0.47h11.5c0.4,0,0.77-0.16,1.13-0.47
		c0.36-0.31,0.53-0.67,0.53-1.07v-40.32c0-1.58,0.51-2.9,1.54-3.97c1.03-1.07,2.29-1.6,3.79-1.6h3.32c1.5,0,2.77,0.53,3.79,1.6
		c1.03,1.07,1.54,2.39,1.54,3.97V244.7z"/>
	<path class="st0" d="M191.42,252.52c0,1.5-0.52,2.79-1.54,3.85c-1.03,1.07-2.29,1.6-3.79,1.6h-3.32c-1.5,0-2.77-0.53-3.79-1.6
		c-1.03-1.07-1.54-2.35-1.54-3.85v-40.2c0-0.47-0.18-0.87-0.53-1.19c-0.36-0.31-0.73-0.47-1.13-0.47h-11.5
		c-0.4,0-0.77,0.16-1.13,0.47c-0.36,0.32-0.53,0.71-0.53,1.19v40.2c0,1.5-0.52,2.79-1.54,3.85c-1.03,1.07-2.29,1.6-3.79,1.6h-3.32
		c-1.5,0-2.79-0.53-3.85-1.6c-1.07-1.07-1.6-2.35-1.6-3.85v-42.69c0-2.45,0.61-4.68,1.84-6.7c1.22-2.02,2.83-3.62,4.8-4.8
		c1.98-1.19,4.19-1.78,6.64-1.78h16.48c2.45,0,4.66,0.59,6.64,1.78c1.98,1.19,3.56,2.79,4.74,4.8c1.19,2.02,1.78,4.25,1.78,6.7
		V252.52z"/>
	<path class="st0" d="M243.95,263.67c0,2.37-0.59,4.57-1.78,6.58c-1.19,2.02-2.77,3.63-4.74,4.86c-1.98,1.22-4.19,1.84-6.64,1.84
		H214.3c-1.5,0-2.79-0.53-3.85-1.6c-1.07-1.07-1.6-2.35-1.6-3.85v-3.32c0-1.5,0.53-2.77,1.6-3.79c1.07-1.03,2.35-1.54,3.85-1.54
		h13.99c0.4,0,0.77-0.16,1.13-0.47c0.36-0.32,0.53-0.67,0.53-1.07v-1.78c0-0.4-0.18-0.75-0.53-1.07c-0.36-0.32-0.73-0.47-1.13-0.47
		H214.3c-3.64,0-6.76-1.28-9.37-3.85c-2.61-2.57-3.91-5.71-3.91-9.43v-34.86c0-2.45,0.61-4.68,1.84-6.7c1.22-2.02,2.83-3.62,4.8-4.8
		c1.98-1.19,4.19-1.78,6.64-1.78h16.48c2.45,0,4.66,0.59,6.64,1.78c1.98,1.19,3.56,2.79,4.74,4.8c1.19,2.02,1.78,4.25,1.78,6.7
		V263.67z M229.95,242.44v-30.12c0-0.47-0.18-0.87-0.53-1.19c-0.36-0.31-0.73-0.47-1.13-0.47h-11.5c-0.4,0-0.77,0.16-1.13,0.47
		c-0.36,0.32-0.53,0.71-0.53,1.19v30.12c0,0.4,0.18,0.75,0.53,1.07c0.36,0.32,0.73,0.47,1.13,0.47h11.5c0.4,0,0.77-0.16,1.13-0.47
		C229.78,243.19,229.95,242.84,229.95,242.44z"/>
	<path class="st0" d="M275.13,252.52c0,1.5-0.53,2.79-1.6,3.85c-1.07,1.07-2.35,1.6-3.85,1.6h-2.96c-3.64,0-6.76-1.28-9.37-3.85
		c-2.61-2.57-3.91-5.71-3.91-9.43v-61.42c0-1.58,0.53-2.88,1.6-3.91c1.07-1.03,2.35-1.54,3.85-1.54h3.32c1.5,0,2.79,0.52,3.85,1.54
		s1.6,2.33,1.6,3.91v59.17c0,1.03,0.47,1.54,1.42,1.54h0.59c1.5,0,2.79,0.52,3.85,1.54c1.07,1.03,1.6,2.33,1.6,3.91V252.52z"/>
	<path class="st0" d="M327.42,222.76c0,2.37-0.59,4.56-1.78,6.58c-1.19,2.02-2.77,3.64-4.74,4.86c-1.98,1.23-4.19,1.84-6.64,1.84
		h-13.99c-0.4,0-0.77,0.14-1.13,0.41c-0.36,0.28-0.53,0.61-0.53,1.01v4.98c0,0.4,0.18,0.75,0.53,1.07c0.36,0.32,0.73,0.47,1.13,0.47
		h13.99c1.5,0,2.79,0.52,3.85,1.54c1.07,1.03,1.6,2.33,1.6,3.91v3.08c0,1.5-0.53,2.79-1.6,3.85c-1.07,1.07-2.35,1.6-3.85,1.6h-16.48
		c-3.64,0-6.76-1.28-9.37-3.85c-2.61-2.57-3.91-5.71-3.91-9.43v-34.86c0-2.45,0.61-4.66,1.84-6.64c1.22-1.98,2.83-3.58,4.8-4.8
		c1.98-1.22,4.19-1.84,6.64-1.84h16.48c2.45,0,4.66,0.61,6.64,1.84c1.98,1.23,3.56,2.83,4.74,4.8c1.19,1.98,1.78,4.19,1.78,6.64
		V222.76z M313.43,220.39v-8.06c0-0.47-0.18-0.87-0.53-1.19c-0.36-0.31-0.73-0.47-1.13-0.47h-11.5c-0.4,0-0.77,0.16-1.13,0.47
		c-0.36,0.32-0.53,0.71-0.53,1.19v8.06c0,0.32,0.18,0.63,0.53,0.95c0.36,0.32,0.73,0.47,1.13,0.47h11.5c0.4,0,0.77-0.16,1.13-0.47
		C313.25,221.02,313.43,220.7,313.43,220.39z"/>
	<path class="st0" d="M389.79,242.32c0,2.85-0.71,5.46-2.13,7.83c-1.42,2.37-3.32,4.27-5.69,5.69c-2.37,1.42-4.98,2.13-7.83,2.13
		h-31.66c-1.5,0-2.79-0.53-3.85-1.6c-1.07-1.07-1.6-2.35-1.6-3.85v-69.25c0-1.58,0.53-2.88,1.6-3.91c1.07-1.03,2.35-1.54,3.85-1.54
		h31.66c2.85,0,5.45,0.71,7.83,2.13c2.37,1.42,4.27,3.32,5.69,5.69s2.13,5.02,2.13,7.95V242.32z M375.68,242.32v-48.73
		c0-1.11-0.52-1.66-1.54-1.66H352.8c-1.03,0-1.54,0.52-1.54,1.54v48.97c0,1.03,0.51,1.54,1.54,1.54h21.34
		c0.39,0,0.75-0.18,1.07-0.53C375.52,243.09,375.68,242.72,375.68,242.32z"/>
	<path class="st0" d="M434.61,205.33c0,1.5-0.52,2.77-1.54,3.79c-1.03,1.03-2.29,1.54-3.79,1.54h-14.11c-1.03,0-1.54,0.55-1.54,1.66
		v40.2c0,1.5-0.53,2.79-1.6,3.85c-1.07,1.07-2.35,1.6-3.85,1.6h-3.32c-1.5,0-2.77-0.53-3.79-1.6c-1.03-1.07-1.54-2.35-1.54-3.85
		v-42.69c0-2.45,0.59-4.68,1.78-6.7c1.19-2.02,2.77-3.62,4.74-4.8c1.98-1.19,4.19-1.78,6.64-1.78h16.6c1.5,0,2.77,0.53,3.79,1.6
		c1.03,1.07,1.54,2.39,1.54,3.97V205.33z"/>
	<path class="st0" d="M487.14,244.7c0,3.71-1.29,6.86-3.85,9.43c-2.57,2.57-5.67,3.85-9.31,3.85H457.5c-3.64,0-6.76-1.28-9.37-3.85
		c-2.61-2.57-3.91-5.71-3.91-9.43v-34.86c0-2.45,0.61-4.68,1.84-6.7c1.22-2.02,2.83-3.62,4.8-4.8c1.97-1.19,4.19-1.78,6.64-1.78
		h16.48c2.45,0,4.66,0.59,6.64,1.78c1.97,1.19,3.56,2.79,4.74,4.8s1.78,4.25,1.78,6.7V244.7z M473.15,242.44v-30.12
		c0-0.47-0.18-0.87-0.53-1.19c-0.36-0.31-0.73-0.47-1.13-0.47h-11.5c-0.4,0-0.77,0.16-1.13,0.47c-0.36,0.32-0.53,0.71-0.53,1.19
		v30.12c0,0.4,0.18,0.75,0.53,1.07c0.36,0.32,0.73,0.47,1.13,0.47h11.5c0.39,0,0.77-0.16,1.13-0.47
		C472.97,243.19,473.15,242.84,473.15,242.44z"/>
	<path class="st0" d="M539.67,244.7c0,3.71-1.29,6.86-3.85,9.43c-2.57,2.57-5.67,3.85-9.31,3.85h-13.99c-0.4,0-0.77,0.16-1.13,0.47
		c-0.36,0.31-0.53,0.67-0.53,1.07v11.98c0,1.5-0.51,2.79-1.54,3.85c-1.03,1.07-2.29,1.6-3.79,1.6h-3.32c-1.5,0-2.79-0.53-3.85-1.6
		c-1.07-1.07-1.6-2.35-1.6-3.85v-61.66c0-2.45,0.61-4.68,1.84-6.7c1.22-2.02,2.83-3.62,4.8-4.8c1.97-1.19,4.19-1.78,6.64-1.78h16.48
		c2.45,0,4.66,0.59,6.64,1.78c1.97,1.19,3.56,2.79,4.74,4.8c1.19,2.02,1.78,4.25,1.78,6.7V244.7z M525.68,242.44v-30.12
		c0-0.47-0.18-0.87-0.53-1.19c-0.36-0.31-0.73-0.47-1.13-0.47h-11.5c-0.4,0-0.77,0.16-1.13,0.47c-0.36,0.32-0.53,0.71-0.53,1.19
		v30.12c0,0.4,0.18,0.75,0.53,1.07c0.36,0.32,0.73,0.47,1.13,0.47h11.5c0.39,0,0.77-0.16,1.13-0.47
		C525.5,243.19,525.68,242.84,525.68,242.44z"/>
</g>
<g id="symbol_1_" class="symbolBounce ">
	<path class="st0" d="M270.69,53.72c0.9-14.66,5.51-26.59,15.64-36.68c10.17,10.06,14.73,22.04,15.76,36.54
		c10.9-9.23,22.64-14.93,37.24-14.78c0.51,14.26-5.14,25.93-14.49,37.14c11.42,0.72,21.17,3.66,29.73,9.82
		c2.29,1.65,4.4,3.54,7.19,5.8c-11.02,10.47-23.32,15.68-37.86,15.73c-14.42,0.05-26.68-5.33-37.51-15.22
		c-12.64,11.57-27.34,16.9-44.27,14.73c-11.55-1.48-21.62-6.35-30.5-15.12c10.06-9.84,21.76-14.84,35.62-15.52
		c-3.36-5.91-7.31-11.4-9.73-17.5c-2.37-5.95-3.2-12.52-4.87-19.53C248,38.91,259.62,44.38,270.69,53.72z"/>
	<path class="st0" d="M282.7,107.4c0,10.63,0.01,20.93,0,31.23c-0.01,5.93,0.13,11.87-0.1,17.79c-0.22,5.46-3.63,9.99-8.87,10.13
		c-15.52,0.41-31.07,0.15-46.58,0.15C225.45,139.27,248.94,109.32,282.7,107.4z"/>
	<path class="st0" d="M290.98,107.52c34.91,2.15,56.66,34.41,54.41,59.51c-5.28,0-10.65,0-16.01,0c-8.97-0.01-17.95,0.06-26.92-0.06
		c-7.22-0.1-11.87-4.23-11.95-11.04c-0.18-15.57-0.06-31.15-0.03-46.73C290.48,108.73,290.75,108.26,290.98,107.52z"/>
</g>
</svg>
