<?xml version="1.0" encoding="utf-8"?>
<!-- Generator: Adobe Illustrator 24.1.2, SVG Export Plug-In . SVG Version: 6.00 Build 0)  -->
<svg version="1.1" id="logo" xmlns="http://www.w3.org/2000/svg" xmlns:xlink="http://www.w3.org/1999/xlink" x="0px" y="0px"
	 viewBox="0 0 499.38 263.51" style="enable-background:new 0 0 499.38 263.51;" xml:space="preserve">
<style type="text/css">
	.st0{fill:#FFFFFF;}
</style>
<g>
	<g id="text">
		<path class="st0" d="M69.38,217.71c0,2.56-0.64,4.91-1.92,7.05c-1.28,2.14-2.99,3.84-5.12,5.12c-2.14,1.28-4.48,1.92-7.05,1.92
			H36.07c-2.56,0-4.93-0.64-7.1-1.92c-2.17-1.28-3.9-2.99-5.18-5.12c-1.28-2.13-1.92-4.48-1.92-7.05v-7.69
			c0-1.35,0.48-2.51,1.44-3.47c0.96-0.96,2.12-1.44,3.47-1.44h2.99c1.35,0,2.51,0.48,3.47,1.44c0.96,0.96,1.44,2.12,1.44,3.47v7.69
			c0,0.36,0.14,0.69,0.43,1.01c0.28,0.32,0.6,0.48,0.96,0.48h19.22c0.36,0,0.68-0.16,0.96-0.48c0.28-0.32,0.43-0.66,0.43-1.01
			v-53.17c0-1.42,0.48-2.6,1.44-3.52c0.96-0.92,2.12-1.39,3.47-1.39h2.88c1.42,0,2.6,0.46,3.52,1.39c0.92,0.92,1.39,2.1,1.39,3.52
			V217.71z"/>
		<path class="st0" d="M116.67,219.84c0,3.34-1.16,6.17-3.47,8.49c-2.31,2.31-5.11,3.47-8.38,3.47H89.98
			c-3.27,0-6.09-1.16-8.43-3.47c-2.35-2.31-3.52-5.14-3.52-8.49v-38.33c0-1.42,0.48-2.61,1.44-3.58c0.96-0.96,2.12-1.44,3.47-1.44
			h2.99c1.35,0,2.49,0.48,3.42,1.44c0.92,0.96,1.39,2.15,1.39,3.58v36.3c0,0.36,0.16,0.68,0.48,0.96c0.32,0.29,0.66,0.43,1.01,0.43
			h10.36c0.36,0,0.69-0.14,1.01-0.43c0.32-0.28,0.48-0.6,0.48-0.96v-36.3c0-1.42,0.46-2.61,1.39-3.58c0.92-0.96,2.06-1.44,3.42-1.44
			h2.99c1.35,0,2.49,0.48,3.42,1.44c0.92,0.96,1.39,2.15,1.39,3.58V219.84z"/>
		<path class="st0" d="M163.96,226.89c0,1.35-0.46,2.51-1.39,3.47c-0.93,0.96-2.06,1.44-3.42,1.44h-2.99
			c-1.35,0-2.49-0.48-3.42-1.44c-0.93-0.96-1.39-2.12-1.39-3.47V190.7c0-0.43-0.16-0.78-0.48-1.07c-0.32-0.28-0.66-0.43-1.01-0.43
			h-10.36c-0.36,0-0.69,0.14-1.01,0.43c-0.32,0.28-0.48,0.64-0.48,1.07v36.19c0,1.35-0.46,2.51-1.39,3.47
			c-0.93,0.96-2.07,1.44-3.42,1.44h-2.99c-1.35,0-2.51-0.48-3.47-1.44c-0.96-0.96-1.44-2.12-1.44-3.47v-38.44
			c0-2.21,0.55-4.22,1.65-6.03c1.1-1.81,2.54-3.26,4.32-4.32c1.78-1.07,3.77-1.6,5.98-1.6h14.84c2.21,0,4.2,0.53,5.98,1.6
			c1.78,1.07,3.2,2.51,4.27,4.32c1.07,1.81,1.6,3.83,1.6,6.03V226.89z"/>
		<path class="st0" d="M211.26,236.92c0,2.14-0.53,4.11-1.6,5.93c-1.07,1.81-2.49,3.27-4.27,4.38c-1.78,1.1-3.77,1.65-5.98,1.65
			h-14.84c-1.35,0-2.51-0.48-3.47-1.44c-0.96-0.96-1.44-2.12-1.44-3.47v-2.99c0-1.35,0.48-2.49,1.44-3.41
			c0.96-0.93,2.12-1.39,3.47-1.39h12.6c0.36,0,0.69-0.14,1.01-0.43c0.32-0.29,0.48-0.61,0.48-0.96v-1.6c0-0.36-0.16-0.68-0.48-0.96
			c-0.32-0.28-0.66-0.43-1.01-0.43h-12.6c-3.27,0-6.09-1.16-8.43-3.47c-2.35-2.31-3.52-5.14-3.52-8.49v-31.39
			c0-2.21,0.55-4.22,1.65-6.03c1.1-1.81,2.54-3.26,4.32-4.32c1.78-1.07,3.77-1.6,5.98-1.6h14.84c2.21,0,4.2,0.53,5.98,1.6
			c1.78,1.07,3.2,2.51,4.27,4.32c1.07,1.81,1.6,3.83,1.6,6.03V236.92z M198.66,217.81V190.7c0-0.43-0.16-0.78-0.48-1.07
			c-0.32-0.28-0.66-0.43-1.01-0.43h-10.36c-0.36,0-0.69,0.14-1.01,0.43c-0.32,0.28-0.48,0.64-0.48,1.07v27.12
			c0,0.36,0.16,0.68,0.48,0.96c0.32,0.29,0.66,0.43,1.01,0.43h10.36c0.36,0,0.69-0.14,1.01-0.43
			C198.5,218.49,198.66,218.17,198.66,217.81z"/>
		<path class="st0" d="M239.34,226.89c0,1.35-0.48,2.51-1.44,3.47c-0.96,0.96-2.12,1.44-3.47,1.44h-2.67
			c-3.27,0-6.09-1.16-8.43-3.47c-2.35-2.31-3.52-5.14-3.52-8.49v-55.3c0-1.42,0.48-2.6,1.44-3.52c0.96-0.92,2.12-1.39,3.47-1.39
			h2.99c1.35,0,2.51,0.46,3.47,1.39c0.96,0.92,1.44,2.1,1.44,3.52v53.27c0,0.93,0.43,1.39,1.28,1.39h0.53
			c1.35,0,2.51,0.46,3.47,1.39c0.96,0.92,1.44,2.1,1.44,3.52V226.89z"/>
		<path class="st0" d="M286.42,200.09c0,2.13-0.53,4.11-1.6,5.92c-1.07,1.82-2.49,3.28-4.27,4.38c-1.78,1.1-3.77,1.65-5.98,1.65
			h-12.6c-0.36,0-0.69,0.12-1.01,0.37c-0.32,0.25-0.48,0.55-0.48,0.91v4.48c0,0.36,0.16,0.68,0.48,0.96
			c0.32,0.29,0.66,0.43,1.01,0.43h12.6c1.35,0,2.51,0.46,3.47,1.39c0.96,0.92,1.44,2.1,1.44,3.52v2.78c0,1.35-0.48,2.51-1.44,3.47
			c-0.96,0.96-2.12,1.44-3.47,1.44h-14.84c-3.27,0-6.09-1.16-8.43-3.47c-2.35-2.31-3.52-5.14-3.52-8.49v-31.39
			c0-2.21,0.55-4.2,1.65-5.98c1.1-1.78,2.54-3.22,4.32-4.32c1.78-1.1,3.77-1.65,5.98-1.65h14.84c2.21,0,4.2,0.55,5.98,1.65
			c1.78,1.1,3.2,2.54,4.27,4.32c1.07,1.78,1.6,3.77,1.6,5.98V200.09z M273.82,197.96v-7.26c0-0.43-0.16-0.78-0.48-1.07
			c-0.32-0.28-0.66-0.43-1.01-0.43h-10.36c-0.36,0-0.69,0.14-1.01,0.43c-0.32,0.28-0.48,0.64-0.48,1.07v7.26
			c0,0.28,0.16,0.57,0.48,0.85c0.32,0.29,0.66,0.43,1.01,0.43h10.36c0.36,0,0.69-0.14,1.01-0.43
			C273.66,198.53,273.82,198.24,273.82,197.96z"/>
		<path class="st0" d="M342.57,217.71c0,2.56-0.64,4.91-1.92,7.05c-1.28,2.14-2.99,3.84-5.12,5.12c-2.14,1.28-4.48,1.92-7.05,1.92
			h-28.51c-1.35,0-2.51-0.48-3.47-1.44c-0.96-0.96-1.44-2.12-1.44-3.47v-62.35c0-1.42,0.48-2.6,1.44-3.52
			c0.96-0.92,2.12-1.39,3.47-1.39h28.51c2.56,0,4.91,0.64,7.05,1.92c2.13,1.28,3.84,2.99,5.12,5.12c1.28,2.13,1.92,4.52,1.92,7.15
			V217.71z M329.87,217.71v-43.88c0-1-0.46-1.49-1.39-1.49h-19.22c-0.93,0-1.39,0.46-1.39,1.39v44.09c0,0.93,0.46,1.39,1.39,1.39
			h19.22c0.36,0,0.68-0.16,0.96-0.48C329.72,218.4,329.87,218.06,329.87,217.71z"/>
		<path class="st0" d="M382.92,184.4c0,1.35-0.46,2.49-1.39,3.42c-0.93,0.93-2.07,1.39-3.42,1.39h-12.7c-0.93,0-1.39,0.5-1.39,1.49
			v36.19c0,1.35-0.48,2.51-1.44,3.47c-0.96,0.96-2.12,1.44-3.47,1.44h-2.99c-1.35,0-2.49-0.48-3.42-1.44
			c-0.93-0.96-1.39-2.12-1.39-3.47v-38.44c0-2.21,0.53-4.22,1.6-6.03c1.07-1.81,2.49-3.26,4.27-4.32c1.78-1.07,3.77-1.6,5.98-1.6
			h14.95c1.35,0,2.49,0.48,3.42,1.44c0.92,0.96,1.39,2.15,1.39,3.58V184.4z"/>
		<path class="st0" d="M430.22,219.84c0,3.34-1.16,6.17-3.47,8.49c-2.31,2.31-5.11,3.47-8.38,3.47h-14.84
			c-3.27,0-6.09-1.16-8.43-3.47c-2.35-2.31-3.52-5.14-3.52-8.49v-31.39c0-2.21,0.55-4.22,1.65-6.03c1.1-1.81,2.54-3.26,4.32-4.32
			c1.78-1.07,3.77-1.6,5.98-1.6h14.84c2.21,0,4.2,0.53,5.98,1.6c1.78,1.07,3.2,2.51,4.27,4.32c1.07,1.81,1.6,3.83,1.6,6.03V219.84z
			 M417.62,217.81V190.7c0-0.43-0.16-0.78-0.48-1.07c-0.32-0.28-0.66-0.43-1.01-0.43h-10.36c-0.36,0-0.69,0.14-1.01,0.43
			c-0.32,0.28-0.48,0.64-0.48,1.07v27.12c0,0.36,0.16,0.68,0.48,0.96c0.32,0.29,0.66,0.43,1.01,0.43h10.36
			c0.36,0,0.69-0.14,1.01-0.43C417.46,218.49,417.62,218.17,417.62,217.81z"/>
		<path class="st0" d="M477.51,219.84c0,3.34-1.16,6.17-3.47,8.49c-2.31,2.31-5.11,3.47-8.38,3.47h-12.6
			c-0.36,0-0.69,0.14-1.01,0.43c-0.32,0.28-0.48,0.6-0.48,0.96v10.78c0,1.35-0.46,2.51-1.39,3.47c-0.93,0.96-2.07,1.44-3.42,1.44
			h-2.99c-1.35,0-2.51-0.48-3.47-1.44c-0.96-0.96-1.44-2.12-1.44-3.47v-55.52c0-2.21,0.55-4.22,1.65-6.03
			c1.1-1.81,2.54-3.26,4.32-4.32c1.78-1.07,3.77-1.6,5.98-1.6h14.84c2.21,0,4.2,0.53,5.98,1.6c1.78,1.07,3.2,2.51,4.27,4.32
			c1.07,1.81,1.6,3.83,1.6,6.03V219.84z M464.92,217.81V190.7c0-0.43-0.16-0.78-0.48-1.07c-0.32-0.28-0.66-0.43-1.01-0.43h-10.36
			c-0.36,0-0.69,0.14-1.01,0.43c-0.32,0.28-0.48,0.64-0.48,1.07v27.12c0,0.36,0.16,0.68,0.48,0.96c0.32,0.29,0.66,0.43,1.01,0.43
			h10.36c0.36,0,0.69-0.14,1.01-0.43C464.76,218.49,464.92,218.17,464.92,217.81z"/>
	</g>
	<g>
		<path class="st0" d="M236.05,46.03c0.77-12.55,4.72-22.77,13.39-31.4c8.7,8.62,12.61,18.87,13.5,31.29
			c9.34-7.91,19.38-12.78,31.88-12.65c0.44,12.21-4.4,22.2-12.4,31.8c9.78,0.62,18.13,3.13,25.46,8.41
			c1.96,1.41,3.77,3.03,6.15,4.97c-9.44,8.96-19.97,13.43-32.42,13.47c-12.35,0.04-22.84-4.56-32.11-13.03
			c-10.82,9.9-23.41,14.47-37.91,12.61c-9.89-1.27-18.51-5.44-26.12-12.94c8.61-8.42,18.63-12.71,30.5-13.29
			c-2.88-5.06-6.26-9.76-8.33-14.98c-2.03-5.1-2.74-10.72-4.17-16.72C216.62,33.35,226.57,38.03,236.05,46.03z"/>
		<g>
			<path class="st0" d="M246.56,93.84c0,8.44,0.01,16.62,0,24.79c0,4.71,0.1,9.42-0.08,14.13c-0.17,4.34-2.88,7.93-7.04,8.04
				c-12.33,0.32-24.66,0.12-36.98,0.12C201.11,119.15,219.75,95.37,246.56,93.84z"/>
			<path class="st0" d="M253.13,93.94c27.72,1.71,44.98,27.32,43.2,47.25c-4.19,0-8.45,0-12.71,0c-7.12-0.01-14.25,0.05-21.37-0.05
				c-5.73-0.08-9.42-3.36-9.48-8.76c-0.14-12.37-0.05-24.73-0.03-37.1C252.73,94.91,252.95,94.53,253.13,93.94z"/>
		</g>
	</g>
</g>
</svg>
