<?xml version="1.0" encoding="utf-8"?>
<!-- Generator: Adobe Illustrator 24.1.2, SVG Export Plug-In . SVG Version: 6.00 Build 0)  -->
<svg version="1.1" id="logo" xmlns="http://www.w3.org/2000/svg" xmlns:xlink="http://www.w3.org/1999/xlink" x="0px" y="0px"
	 viewBox="0 0 1456.18 768.39" style="enable-background:new 0 0 1456.18 768.39;" xml:space="preserve">
<style type="text/css">
	.st0{fill:#FFFFFF;}
</style>
<g id="text">
	<g>
		<path class="st0" d="M330.38,573.78c0,5.65-1.41,10.83-4.24,15.54c-2.83,4.71-6.59,8.48-11.3,11.3
			c-4.71,2.83-9.89,4.24-15.54,4.24h-42.39c-5.65,0-10.87-1.41-15.66-4.24c-4.79-2.82-8.6-6.59-11.42-11.3
			c-2.83-4.71-4.24-9.89-4.24-15.54v-16.95c0-2.98,1.06-5.53,3.18-7.65c2.12-2.12,4.67-3.18,7.65-3.18h6.59
			c2.98,0,5.53,1.06,7.65,3.18c2.12,2.12,3.18,4.67,3.18,7.65v16.95c0,0.79,0.31,1.53,0.94,2.24c0.63,0.71,1.33,1.06,2.12,1.06
			h42.39c0.78,0,1.49-0.35,2.12-1.06c0.63-0.71,0.94-1.45,0.94-2.24V456.51c0-3.14,1.06-5.73,3.18-7.77
			c2.12-2.04,4.67-3.06,7.65-3.06h6.36c3.14,0,5.73,1.02,7.77,3.06c2.04,2.04,3.06,4.63,3.06,7.77V573.78z"/>
		<path class="st0" d="M434.69,578.49c0,7.38-2.55,13.62-7.65,18.72c-5.1,5.1-11.27,7.65-18.49,7.65h-32.73
			c-7.22,0-13.42-2.55-18.6-7.65c-5.18-5.1-7.77-11.34-7.77-18.72v-84.54c0-3.14,1.06-5.77,3.18-7.89c2.12-2.12,4.67-3.18,7.65-3.18
			h6.59c2.98,0,5.49,1.06,7.54,3.18c2.04,2.12,3.06,4.75,3.06,7.89v80.06c0,0.79,0.35,1.49,1.06,2.12c0.71,0.63,1.45,0.94,2.24,0.94
			h22.84c0.78,0,1.53-0.31,2.24-0.94c0.71-0.62,1.06-1.33,1.06-2.12v-80.06c0-3.14,1.02-5.77,3.06-7.89
			c2.04-2.12,4.55-3.18,7.54-3.18h6.59c2.98,0,5.49,1.06,7.54,3.18c2.04,2.12,3.06,4.75,3.06,7.89V578.49z"/>
		<path class="st0" d="M539,594.03c0,2.98-1.02,5.53-3.06,7.65c-2.04,2.12-4.55,3.18-7.54,3.18h-6.59c-2.98,0-5.5-1.06-7.54-3.18
			c-2.04-2.12-3.06-4.67-3.06-7.65V514.2c0-0.94-0.35-1.73-1.06-2.35c-0.71-0.62-1.45-0.94-2.24-0.94h-22.84
			c-0.79,0-1.53,0.32-2.24,0.94c-0.71,0.63-1.06,1.41-1.06,2.35v79.83c0,2.98-1.02,5.53-3.06,7.65c-2.04,2.12-4.56,3.18-7.54,3.18
			h-6.59c-2.98,0-5.53-1.06-7.65-3.18c-2.12-2.12-3.18-4.67-3.18-7.65v-84.78c0-4.86,1.21-9.3,3.65-13.3c2.43-4,5.61-7.18,9.54-9.54
			c3.92-2.35,8.32-3.53,13.19-3.53h32.73c4.86,0,9.26,1.18,13.19,3.53c3.92,2.35,7.06,5.53,9.42,9.54c2.36,4,3.53,8.44,3.53,13.3
			V594.03z"/>
		<path class="st0" d="M643.32,616.16c0,4.71-1.18,9.07-3.53,13.07c-2.35,4-5.5,7.22-9.42,9.65c-3.93,2.43-8.32,3.65-13.19,3.65
			h-32.73c-2.98,0-5.53-1.06-7.65-3.18c-2.12-2.12-3.18-4.67-3.18-7.65v-6.59c0-2.98,1.06-5.5,3.18-7.53
			c2.12-2.04,4.67-3.06,7.65-3.06h27.79c0.78,0,1.53-0.31,2.24-0.94c0.71-0.63,1.06-1.34,1.06-2.12v-3.53
			c0-0.79-0.35-1.49-1.06-2.12c-0.71-0.63-1.45-0.94-2.24-0.94h-27.79c-7.22,0-13.42-2.55-18.6-7.65
			c-5.18-5.1-7.77-11.34-7.77-18.72v-69.23c0-4.86,1.21-9.3,3.65-13.3c2.43-4,5.61-7.18,9.54-9.54c3.92-2.35,8.32-3.53,13.19-3.53
			h32.73c4.86,0,9.26,1.18,13.19,3.53c3.92,2.35,7.06,5.53,9.42,9.54c2.36,4,3.53,8.44,3.53,13.3V616.16z M615.53,574.01V514.2
			c0-0.94-0.35-1.73-1.06-2.35c-0.71-0.62-1.45-0.94-2.24-0.94H589.4c-0.79,0-1.53,0.32-2.24,0.94c-0.71,0.63-1.06,1.41-1.06,2.35
			v59.81c0,0.79,0.35,1.49,1.06,2.12c0.71,0.63,1.45,0.94,2.24,0.94h22.84c0.78,0,1.53-0.31,2.24-0.94
			C615.18,575.51,615.53,574.8,615.53,574.01z"/>
		<path class="st0" d="M705.25,594.03c0,2.98-1.06,5.53-3.18,7.65c-2.12,2.12-4.67,3.18-7.65,3.18h-5.89
			c-7.22,0-13.42-2.55-18.6-7.65c-5.18-5.1-7.77-11.34-7.77-18.72V456.51c0-3.14,1.06-5.73,3.18-7.77c2.12-2.04,4.67-3.06,7.65-3.06
			h6.59c2.98,0,5.53,1.02,7.65,3.06s3.18,4.63,3.18,7.77v117.5c0,2.04,0.94,3.06,2.83,3.06h1.18c2.98,0,5.53,1.02,7.65,3.06
			c2.12,2.04,3.18,4.63,3.18,7.77V594.03z"/>
		<path class="st0" d="M809.09,534.92c0,4.71-1.18,9.06-3.53,13.07c-2.35,4.01-5.5,7.23-9.42,9.66c-3.93,2.44-8.32,3.65-13.19,3.65
			h-27.79c-0.79,0-1.53,0.28-2.24,0.82c-0.71,0.55-1.06,1.22-1.06,2v9.89c0,0.79,0.35,1.49,1.06,2.12c0.71,0.63,1.45,0.94,2.24,0.94
			h27.79c2.98,0,5.53,1.02,7.65,3.06c2.12,2.04,3.18,4.63,3.18,7.77v6.12c0,2.98-1.06,5.53-3.18,7.65
			c-2.12,2.12-4.67,3.18-7.65,3.18h-32.73c-7.22,0-13.42-2.55-18.6-7.65c-5.18-5.1-7.77-11.34-7.77-18.72v-69.23
			c0-4.86,1.21-9.26,3.65-13.18c2.43-3.93,5.61-7.1,9.54-9.54c3.92-2.43,8.32-3.65,13.19-3.65h32.73c4.86,0,9.26,1.22,13.19,3.65
			c3.92,2.44,7.06,5.61,9.42,9.54c2.36,3.93,3.53,8.32,3.53,13.18V534.92z M781.31,530.21V514.2c0-0.94-0.35-1.73-1.06-2.35
			c-0.71-0.62-1.45-0.94-2.24-0.94h-22.84c-0.79,0-1.53,0.32-2.24,0.94c-0.71,0.63-1.06,1.41-1.06,2.35v16.01
			c0,0.63,0.35,1.26,1.06,1.88c0.71,0.63,1.45,0.94,2.24,0.94h22.84c0.78,0,1.53-0.31,2.24-0.94
			C780.95,531.47,781.31,530.84,781.31,530.21z"/>
		<path class="st0" d="M932.95,573.78c0,5.65-1.41,10.83-4.24,15.54c-2.83,4.71-6.59,8.48-11.3,11.3
			c-4.71,2.83-9.89,4.24-15.54,4.24H839c-2.98,0-5.53-1.06-7.65-3.18c-2.12-2.12-3.18-4.67-3.18-7.65V456.51
			c0-3.14,1.06-5.73,3.18-7.77c2.12-2.04,4.67-3.06,7.65-3.06h62.87c5.65,0,10.83,1.42,15.54,4.24c4.71,2.83,8.48,6.59,11.3,11.3
			c2.83,4.71,4.24,9.97,4.24,15.78V573.78z M904.93,573.78V477c0-2.2-1.02-3.3-3.06-3.3h-42.39c-2.04,0-3.06,1.02-3.06,3.06v97.25
			c0,2.04,1.02,3.06,3.06,3.06h42.39c0.78,0,1.49-0.35,2.12-1.06C904.61,575.31,904.93,574.56,904.93,573.78z"/>
		<path class="st0" d="M1021.96,500.31c0,2.99-1.02,5.5-3.06,7.54c-2.04,2.04-4.56,3.06-7.54,3.06h-28.02c-2.04,0-3.06,1.1-3.06,3.3
			v79.83c0,2.98-1.06,5.53-3.18,7.65c-2.12,2.12-4.67,3.18-7.65,3.18h-6.59c-2.98,0-5.5-1.06-7.54-3.18
			c-2.04-2.12-3.06-4.67-3.06-7.65v-84.78c0-4.86,1.18-9.3,3.53-13.3c2.36-4,5.49-7.18,9.42-9.54c3.92-2.35,8.32-3.53,13.19-3.53
			h32.97c2.98,0,5.49,1.06,7.54,3.18c2.04,2.12,3.06,4.75,3.06,7.89V500.31z"/>
		<path class="st0" d="M1126.27,578.49c0,7.38-2.55,13.62-7.65,18.72c-5.1,5.1-11.27,7.65-18.49,7.65h-32.73
			c-7.22,0-13.42-2.55-18.6-7.65c-5.18-5.1-7.77-11.34-7.77-18.72v-69.23c0-4.86,1.21-9.3,3.65-13.3c2.43-4,5.61-7.18,9.54-9.54
			c3.92-2.35,8.32-3.53,13.19-3.53h32.73c4.86,0,9.26,1.18,13.19,3.53c3.92,2.35,7.06,5.53,9.42,9.54c2.35,4,3.53,8.44,3.53,13.3
			V578.49z M1098.49,574.01V514.2c0-0.94-0.35-1.73-1.06-2.35c-0.71-0.62-1.45-0.94-2.24-0.94h-22.84c-0.79,0-1.53,0.32-2.24,0.94
			c-0.71,0.63-1.06,1.41-1.06,2.35v59.81c0,0.79,0.35,1.49,1.06,2.12c0.71,0.63,1.45,0.94,2.24,0.94h22.84
			c0.78,0,1.53-0.31,2.24-0.94C1098.13,575.51,1098.49,574.8,1098.49,574.01z"/>
		<path class="st0" d="M1230.59,578.49c0,7.38-2.55,13.62-7.65,18.72c-5.1,5.1-11.27,7.65-18.49,7.65h-27.79
			c-0.79,0-1.53,0.31-2.24,0.94c-0.71,0.62-1.06,1.33-1.06,2.12v23.78c0,2.98-1.02,5.53-3.06,7.65c-2.04,2.12-4.56,3.18-7.54,3.18
			h-6.59c-2.98,0-5.53-1.06-7.65-3.18c-2.12-2.12-3.18-4.67-3.18-7.65V509.25c0-4.86,1.21-9.3,3.65-13.3c2.43-4,5.61-7.18,9.54-9.54
			c3.92-2.35,8.32-3.53,13.19-3.53h32.73c4.86,0,9.26,1.18,13.19,3.53c3.92,2.35,7.06,5.53,9.42,9.54c2.35,4,3.53,8.44,3.53,13.3
			V578.49z M1202.8,574.01V514.2c0-0.94-0.35-1.73-1.06-2.35c-0.71-0.62-1.45-0.94-2.24-0.94h-22.84c-0.79,0-1.53,0.32-2.24,0.94
			c-0.71,0.63-1.06,1.41-1.06,2.35v59.81c0,0.79,0.35,1.49,1.06,2.12c0.71,0.63,1.45,0.94,2.24,0.94h22.84
			c0.78,0,1.53-0.31,2.24-0.94C1202.45,575.51,1202.8,574.8,1202.8,574.01z"/>
	</g>
</g>
<g id="symbol">
	<g>
		<g>
			<path class="st0" d="M698.01,195.12c1.7-27.68,10.41-50.22,29.53-69.27c19.2,19,27.81,41.63,29.77,69.01
				c20.59-17.44,42.75-28.2,70.32-27.91c0.96,26.93-9.71,48.96-27.36,70.15c21.58,1.37,39.98,6.91,56.15,18.55
				c4.32,3.11,8.32,6.69,13.58,10.95c-20.82,19.77-44.05,29.62-71.51,29.71c-27.24,0.1-50.38-10.06-70.83-28.75
				c-23.86,21.85-51.63,31.92-83.61,27.82c-21.81-2.8-40.83-11.99-57.61-28.55c19-18.58,41.1-28.03,67.27-29.32
				c-6.35-11.16-13.8-21.54-18.38-33.05c-4.48-11.24-6.04-23.65-9.2-36.88C655.14,167.14,677.09,177.47,698.01,195.12z"/>
		</g>
		<g>
			<g>
				<path class="st0" d="M721.18,300.57c0,18.61,0.01,36.65,0,54.69c-0.01,10.39,0.23,20.78-0.18,31.16
					c-0.38,9.57-6.36,17.49-15.53,17.73c-27.19,0.72-54.4,0.26-81.57,0.26C620.92,356.4,662.05,303.94,721.18,300.57z"/>
			</g>
			<g>
				<path class="st0" d="M735.68,300.79c61.14,3.77,99.22,60.26,95.28,104.22c-9.24,0-18.64,0.01-28.04,0
					c-15.71-0.02-31.43,0.1-47.14-0.11c-12.65-0.17-20.79-7.41-20.92-19.33c-0.31-27.27-0.1-54.55-0.06-81.83
					C734.79,302.91,735.28,302.09,735.68,300.79z"/>
			</g>
		</g>
	</g>
</g>
</svg>
